<svg width="16" height="17" viewBox="0 0 16 17" fill="none" xmlns="http://www.w3.org/2000/svg">
<path d="M13.354 6.85399L8.35403 11.8538C8.30759 11.9003 8.25245 11.9371 8.19175 11.9623C8.13105 11.9875 8.06599 12.0004 8.00028 12.0004C7.93457 12.0004 7.86951 11.9875 7.80881 11.9623C7.74811 11.9371 7.69296 11.9003 7.64653 11.8538L2.64653 6.85399C2.55271 6.76017 2.5 6.63293 2.5 6.50026C2.5 6.36758 2.55271 6.24034 2.64653 6.14652C2.74035 6.05271 2.8676 6 3.00028 6C3.13296 6 3.26021 6.05271 3.35403 6.14652L8.00028 10.7932L12.6465 6.14652C12.693 6.10007 12.7481 6.06322 12.8088 6.03808C12.8695 6.01294 12.9346 6 13.0003 6C13.066 6 13.131 6.01294 13.1917 6.03808C13.2524 6.06322 13.3076 6.10007 13.354 6.14652C13.4005 6.19297 13.4373 6.24812 13.4625 6.30882C13.4876 6.36951 13.5006 6.43456 13.5006 6.50026C13.5006 6.56595 13.4876 6.631 13.4625 6.6917C13.4373 6.75239 13.4005 6.80754 13.354 6.85399Z" fill="#2E90FA"/>
</svg>
