<svg width="115" height="115" viewBox="0 0 115 115" fill="none" xmlns="http://www.w3.org/2000/svg">
<rect x="0.484375" y="0.043457" width="114.031" height="114.031" rx="46.312" fill="#5BA8FD"/>
<path d="M82.6954 77.8733C77.4079 75.2952 74.375 69.7686 74.375 62.6858V58.6358C74.377 57.8845 74.1524 57.15 73.7306 56.5282C73.3087 55.9065 72.7091 55.4264 72.0102 55.1507L66.1719 52.8397C65.7126 52.656 65.3445 52.2982 65.1478 51.8442C64.9511 51.3903 64.9418 50.877 65.1219 50.4163L70.1188 37.9944C70.4579 37.1791 70.629 36.3038 70.6218 35.4208C70.6147 34.5378 70.4294 33.6653 70.0771 32.8556C69.7247 32.046 69.2126 31.3157 68.5714 30.7086C67.9302 30.1015 67.1731 29.6301 66.3454 29.3225C64.7332 28.7318 62.9542 28.7931 61.3865 29.4934C59.8188 30.1936 58.586 31.4776 57.9501 33.0725C57.9491 33.0819 57.9491 33.0913 57.9501 33.1007L53.0235 45.5741C52.8403 46.0356 52.4815 46.4055 52.0258 46.6028C51.5702 46.8001 51.0549 46.8086 50.593 46.6264L44.6352 44.2007C43.9483 43.9223 43.1939 43.8552 42.4687 44.0081C41.7435 44.1609 41.0803 44.5266 40.5641 45.0585C35.6282 50.1327 33.125 56.0624 33.125 62.6835C33.1121 69.459 35.7324 75.9746 40.4329 80.8546C40.609 81.0387 40.8208 81.1849 41.0553 81.2845C41.2898 81.384 41.5422 81.4347 41.7969 81.4335H81.875C82.2988 81.4331 82.71 81.2891 83.0415 81.025C83.373 80.761 83.6052 80.3924 83.7004 79.9795C83.7955 79.5665 83.748 79.1335 83.5655 78.751C83.383 78.3685 83.0762 78.0591 82.6954 77.8733ZM43.236 47.6835L49.1915 50.0975C49.8789 50.3725 50.6139 50.5091 51.3542 50.4995C52.0946 50.4898 52.8258 50.3341 53.5058 50.0412C54.1858 49.7483 54.8013 49.3241 55.317 48.7928C55.8327 48.2615 56.2385 47.6336 56.511 46.9452L61.4329 34.5233C62.0329 33.0913 63.6524 32.3507 65.0493 32.8827C65.4054 33.0148 65.7311 33.2177 66.0066 33.4792C66.2822 33.7406 66.502 34.0551 66.6527 34.4038C66.8033 34.7525 66.8818 35.1281 66.8834 35.5079C66.885 35.8878 66.8096 36.264 66.6618 36.6139L61.6461 49.0335C61.097 50.4188 61.1201 51.9654 61.7102 53.3338C62.3004 54.7022 63.4094 55.7805 64.7938 56.3319L70.625 58.6358V62.6835C70.625 62.7608 70.625 62.8382 70.625 62.9178L40.5711 50.8967C41.3701 49.7546 42.2614 48.68 43.236 47.6835ZM54.486 77.6835C51.6944 75.0057 49.7168 71.5932 48.7813 67.8397C48.6509 67.365 48.3391 66.9606 47.9131 66.7138C47.4871 66.467 46.9811 66.3977 46.5044 66.5208C46.0278 66.6439 45.6186 66.9495 45.3654 67.3717C45.1121 67.7939 45.035 68.2987 45.1508 68.7772C45.9686 72.0062 47.4325 75.036 49.454 77.6835H42.6032C38.9052 73.5635 36.8645 68.2197 36.875 62.6835C36.8521 59.7502 37.4704 56.8473 38.6868 54.178L70.9836 67.0967C71.6868 71.3155 73.4586 74.9436 76.1141 77.6811L54.486 77.6835Z" fill="#F2F6FF"/>
</svg>
