<svg width="115" height="115" viewBox="0 0 115 115" fill="none" xmlns="http://www.w3.org/2000/svg">
<rect x="0.484375" y="0.043457" width="114.031" height="114.031" rx="46.312" fill="#5BA8FD"/>
<path d="M79.9966 77.6836C79.9966 78.1809 79.7991 78.6578 79.4474 79.0094C79.0958 79.361 78.6189 79.5586 78.1216 79.5586H44.3716C43.8743 79.5586 43.3974 79.361 43.0458 79.0094C42.6941 78.6578 42.4966 78.1809 42.4966 77.6836C42.4966 77.1863 42.6941 76.7094 43.0458 76.3578C43.3974 76.0061 43.8743 75.8086 44.3716 75.8086H78.1216C78.6189 75.8086 79.0958 76.0061 79.4474 76.3578C79.7991 76.7094 79.9966 77.1863 79.9966 77.6836ZM85.6216 58.9336V64.5586C85.6216 65.0559 85.4241 65.5328 85.0724 65.8844C84.7208 66.2361 84.2439 66.4336 83.7466 66.4336H41.8099C39.7914 66.4428 37.8245 65.7963 36.2052 64.5912C34.5859 63.3861 33.4017 61.6877 32.831 59.7516L29.5333 48.7617C29.3653 48.202 29.3304 47.6108 29.4315 47.0353C29.5325 46.4597 29.7666 45.9157 30.1152 45.4467C30.4638 44.9777 30.9171 44.5966 31.4391 44.3339C31.9611 44.0712 32.5372 43.9341 33.1216 43.9336H34.9966C35.4932 43.9338 35.9695 44.1311 36.3208 44.482L41.3997 49.5586H46.6708L44.5614 43.2445C44.3735 42.6806 44.3222 42.0801 44.412 41.4925C44.5017 40.9049 44.7298 40.347 45.0776 39.8649C45.4253 39.3828 45.8826 38.9903 46.4119 38.7197C46.9412 38.4491 47.5272 38.3082 48.1216 38.3086H49.9966C50.2429 38.3084 50.4868 38.3567 50.7144 38.4508C50.9421 38.5449 51.1489 38.683 51.3232 38.857L62.0247 49.5586H76.2466C78.733 49.5586 81.1176 50.5463 82.8757 52.3045C84.6339 54.0626 85.6216 56.4472 85.6216 58.9336ZM81.8716 58.9336C81.8716 57.4418 81.279 56.011 80.2241 54.9561C79.1692 53.9012 77.7385 53.3086 76.2466 53.3086H61.2466C60.75 53.3084 60.2737 53.1111 59.9224 52.7602L49.2208 42.0586H48.1216L51.0489 50.8406C51.1428 51.1223 51.1685 51.4223 51.1238 51.7158C51.0791 52.0093 50.9654 52.288 50.7919 52.529C50.6185 52.77 50.3902 52.9663 50.1261 53.1019C49.8619 53.2374 49.5693 53.3082 49.2724 53.3086H40.6216C40.3753 53.3088 40.1314 53.2605 39.9038 53.1664C39.6761 53.0722 39.4693 52.9342 39.295 52.7602L34.2208 47.6836H33.1216L36.4193 58.6758C36.7621 59.8377 37.4732 60.8569 38.4454 61.5797C39.4177 62.3025 40.5984 62.6899 41.8099 62.6836H81.8716V58.9336Z" fill="#F2F6FF"/>
</svg>
