<svg width="115" height="115" viewBox="0 0 115 115" fill="none" xmlns="http://www.w3.org/2000/svg">
<rect x="0.484375" y="0.043457" width="114.031" height="114.031" rx="46.312" fill="#5BA8FD"/>
<path d="M78.1266 47.8711V43.9336C78.1266 41.4472 77.1389 39.0626 75.3807 37.3045C73.6226 35.5463 71.238 34.5586 68.7516 34.5586H46.2516C43.7652 34.5586 41.3806 35.5463 39.6225 37.3045C37.8643 39.0626 36.8766 41.4472 36.8766 43.9336V47.8711C34.7573 48.3014 32.8519 49.4512 31.4834 51.1256C30.1148 52.8 29.3672 54.8961 29.3672 57.0586C29.3672 59.2211 30.1148 61.3172 31.4834 62.9916C32.8519 64.666 34.7573 65.8158 36.8766 66.2461V73.9336C36.8766 74.9282 37.2717 75.882 37.9749 76.5852C38.6782 77.2885 39.632 77.6836 40.6266 77.6836H74.3766C75.3712 77.6836 76.325 77.2885 77.0282 76.5852C77.7315 75.882 78.1266 74.9282 78.1266 73.9336V66.2461C80.2459 65.8158 82.1512 64.666 83.5198 62.9916C84.8884 61.3172 85.636 59.2211 85.636 57.0586C85.636 54.8961 84.8884 52.8 83.5198 51.1256C82.1512 49.4512 80.2459 48.3014 78.1266 47.8711ZM46.2516 38.3086H68.7516C70.2434 38.3086 71.6742 38.9012 72.7291 39.9561C73.784 41.011 74.3766 42.4418 74.3766 43.9336V47.8711C72.2604 48.3062 70.359 49.4576 68.9928 51.1312C67.6266 52.8047 66.8792 54.8982 66.8766 57.0586H48.1266C48.1239 54.8982 47.3765 52.8047 46.0103 51.1312C44.6442 49.4576 42.7427 48.3062 40.6266 47.8711V43.9336C40.6266 42.4418 41.2192 41.011 42.2741 39.9561C43.329 38.9012 44.7597 38.3086 46.2516 38.3086ZM76.343 62.6836H76.2516C75.7543 62.6836 75.2774 62.8811 74.9258 63.2328C74.5741 63.5844 74.3766 64.0613 74.3766 64.5586V73.9336H40.6266V64.5586C40.6266 64.0613 40.429 63.5844 40.0774 63.2328C39.7258 62.8811 39.2489 62.6836 38.7516 62.6836H38.6602C37.5517 62.6656 36.4733 62.3204 35.5604 61.6915C34.6475 61.0626 33.9407 60.1779 33.529 59.1486C33.1172 58.1193 33.0188 56.9913 33.246 55.9062C33.4733 54.8212 34.0161 53.8275 34.8063 53.0499C35.5965 52.2724 36.5988 51.7457 37.6874 51.5359C38.776 51.3262 39.9022 51.4428 40.9248 51.8711C41.9473 52.2994 42.8204 53.0203 43.4346 53.9432C44.0487 54.8662 44.3764 55.95 44.3766 57.0586V66.4336C44.3766 66.9309 44.5741 67.4078 44.9258 67.7594C45.2774 68.111 45.7543 68.3086 46.2516 68.3086C46.7489 68.3086 47.2258 68.111 47.5774 67.7594C47.929 67.4078 48.1266 66.9309 48.1266 66.4336V60.8086H66.8766V66.4336C66.8766 66.9309 67.0741 67.4078 67.4258 67.7594C67.7774 68.111 68.2543 68.3086 68.7516 68.3086C69.2489 68.3086 69.7258 68.111 70.0774 67.7594C70.429 67.4078 70.6266 66.9309 70.6266 66.4336V57.0586C70.6267 55.95 70.9545 54.8662 71.5686 53.9432C72.1827 53.0203 73.0559 52.2994 74.0784 51.8711C75.1009 51.4428 76.2272 51.3262 77.3158 51.5359C78.4044 51.7457 79.4067 52.2724 80.1969 53.0499C80.9871 53.8275 81.5299 54.8212 81.7571 55.9062C81.9844 56.9913 81.886 58.1193 81.4742 59.1486C81.0624 60.1779 80.3557 61.0626 79.4428 61.6915C78.5299 62.3204 77.4514 62.6656 76.343 62.6836Z" fill="#F2F6FF"/>
</svg>
