<svg width="26" height="27" viewBox="0 0 26 27" fill="none" xmlns="http://www.w3.org/2000/svg">
<path d="M13 0.5C10.4288 0.5 7.91543 1.26244 5.77759 2.6909C3.63975 4.11935 1.97351 6.14968 0.989572 8.52512C0.0056327 10.9006 -0.251811 13.5144 0.249797 16.0362C0.751405 18.5579 1.98953 20.8743 3.80762 22.6924C5.6257 24.5105 7.94208 25.7486 10.4638 26.2502C12.9856 26.7518 15.5995 26.4944 17.9749 25.5104C20.3503 24.5265 22.3807 22.8603 23.8091 20.7224C25.2376 18.5846 26 16.0712 26 13.5C25.9964 10.0533 24.6256 6.74882 22.1884 4.31163C19.7512 1.87445 16.4467 0.50364 13 0.5ZM9.70376 18.5H16.2963C15.625 20.7925 14.5 22.8587 13 24.4862C11.5 22.8587 10.375 20.7925 9.70376 18.5ZM9.25001 16.5C8.91834 14.5138 8.91834 12.4862 9.25001 10.5H16.75C17.0817 12.4862 17.0817 14.5138 16.75 16.5H9.25001ZM2.00001 13.5C1.99914 12.4855 2.13923 11.4759 2.41626 10.5H7.22376C6.92542 12.4889 6.92542 14.5111 7.22376 16.5H2.41626C2.13923 15.5241 1.99914 14.5145 2.00001 13.5ZM16.2963 8.5H9.70376C10.375 6.2075 11.5 4.14125 13 2.51375C14.5 4.14125 15.625 6.2075 16.2963 8.5ZM18.7763 10.5H23.5838C24.1388 12.4615 24.1388 14.5385 23.5838 16.5H18.7763C19.0746 14.5111 19.0746 12.4889 18.7763 10.5ZM22.7963 8.5H18.3675C17.8572 6.49189 17.0001 4.5883 15.835 2.875C17.3236 3.27503 18.7119 3.98215 19.9108 4.95091C21.1097 5.91967 22.0926 7.12861 22.7963 8.5ZM10.165 2.875C8.99987 4.5883 8.14284 6.49189 7.63251 8.5H3.20376C3.90741 7.12861 4.89029 5.91967 6.08918 4.95091C7.28808 3.98215 8.67644 3.27503 10.165 2.875ZM3.20376 18.5H7.63251C8.14284 20.5081 8.99987 22.4117 10.165 24.125C8.67644 23.725 7.28808 23.0178 6.08918 22.0491C4.89029 21.0803 3.90741 19.8714 3.20376 18.5ZM15.835 24.125C17.0001 22.4117 17.8572 20.5081 18.3675 18.5H22.7963C22.0926 19.8714 21.1097 21.0803 19.9108 22.0491C18.7119 23.0178 17.3236 23.725 15.835 24.125Z" fill="#2E90FA"/>
</svg>
