<svg width="54" height="54" viewBox="0 0 54 54" fill="none" xmlns="http://www.w3.org/2000/svg">
<rect x="0.414062" y="0.172852" width="53.5864" height="53.5864" rx="21.9312" fill="#5BA8FD"/>
<path d="M37.7109 18.2158H16.7109C16.2468 18.2158 15.8017 18.4002 15.4735 18.7284C15.1453 19.0566 14.9609 19.5017 14.9609 19.9658V33.9658C14.9609 34.4299 15.1453 34.8751 15.4735 35.2033C15.8017 35.5314 16.2468 35.7158 16.7109 35.7158H37.7109C38.1751 35.7158 38.6202 35.5314 38.9484 35.2033C39.2766 34.8751 39.4609 34.4299 39.4609 33.9658V19.9658C39.4609 19.5017 39.2766 19.0566 38.9484 18.7284C38.6202 18.4002 38.1751 18.2158 37.7109 18.2158ZM37.7109 19.9658V22.5908H16.7109V19.9658H37.7109ZM37.7109 33.9658H16.7109V24.3408H37.7109V33.9658ZM35.9609 31.3408C35.9609 31.5729 35.8688 31.7954 35.7047 31.9595C35.5406 32.1236 35.318 32.2158 35.0859 32.2158H31.5859C31.3539 32.2158 31.1313 32.1236 30.9672 31.9595C30.8031 31.7954 30.7109 31.5729 30.7109 31.3408C30.7109 31.1088 30.8031 30.8862 30.9672 30.7221C31.1313 30.558 31.3539 30.4658 31.5859 30.4658H35.0859C35.318 30.4658 35.5406 30.558 35.7047 30.7221C35.8688 30.8862 35.9609 31.1088 35.9609 31.3408ZM28.9609 31.3408C28.9609 31.5729 28.8688 31.7954 28.7047 31.9595C28.5406 32.1236 28.318 32.2158 28.0859 32.2158H26.3359C26.1039 32.2158 25.8813 32.1236 25.7172 31.9595C25.5531 31.7954 25.4609 31.5729 25.4609 31.3408C25.4609 31.1088 25.5531 30.8862 25.7172 30.7221C25.8813 30.558 26.1039 30.4658 26.3359 30.4658H28.0859C28.318 30.4658 28.5406 30.558 28.7047 30.7221C28.8688 30.8862 28.9609 31.1088 28.9609 31.3408Z" fill="#F2F6FF"/>
</svg>
