<svg width="54" height="54" viewBox="0 0 54 54" fill="none" xmlns="http://www.w3.org/2000/svg">
<rect x="0.414062" width="53.5864" height="53.5864" rx="21.9312" fill="#5BA8FD"/>
<path d="M39.3711 23.4338C39.2651 23.1072 39.0654 22.819 38.7969 22.6051C38.5283 22.3911 38.2027 22.261 37.8606 22.2307L31.3649 21.6707L28.8186 15.6157C28.686 15.298 28.4624 15.0266 28.1759 14.8357C27.8895 14.6448 27.5529 14.543 27.2086 14.543C26.8644 14.543 26.5278 14.6448 26.2413 14.8357C25.9548 15.0266 25.7312 15.298 25.5986 15.6157L23.06 21.6707L16.5566 22.234C16.2132 22.2629 15.886 22.3925 15.6159 22.6065C15.3459 22.8206 15.1451 23.1097 15.0386 23.4375C14.9322 23.7652 14.925 24.1171 15.0177 24.449C15.1105 24.7809 15.2992 25.078 15.5602 25.3031L20.4941 29.6146L19.0153 36.0174C18.9371 36.3525 18.9595 36.7032 19.0795 37.0256C19.1995 37.3481 19.4119 37.628 19.6902 37.8304C19.9684 38.0328 20.3002 38.1486 20.6439 38.1635C20.9876 38.1784 21.3281 38.0916 21.6228 37.914L27.201 34.5234L32.7911 37.914C33.0858 38.0916 33.4263 38.1784 33.7701 38.1635C34.1138 38.1486 34.4455 38.0328 34.7238 37.8304C35.002 37.628 35.2144 37.3481 35.3345 37.0256C35.4545 36.7032 35.4768 36.3525 35.3986 36.0174L33.921 29.6081L38.8538 25.3031C39.1147 25.0772 39.303 24.7793 39.3951 24.4467C39.4871 24.1141 39.4788 23.7617 39.3711 23.4338ZM37.7064 23.9807L32.7736 28.2857C32.5335 28.4946 32.3549 28.7649 32.257 29.0677C32.1591 29.3704 32.1456 29.6941 32.218 30.004L33.7 36.4178L28.1142 33.0271C27.8417 32.8612 27.5288 32.7734 27.2097 32.7734C26.8906 32.7734 26.5777 32.8612 26.3052 33.0271L20.7271 36.4178L22.1992 30.0084C22.2716 29.6985 22.2581 29.3748 22.1602 29.072C22.0623 28.7693 21.8837 28.4989 21.6436 28.2901L16.7086 23.9873C16.7082 23.984 16.7082 23.9807 16.7086 23.9774L23.2099 23.4153C23.5273 23.3873 23.831 23.2732 24.0883 23.0852C24.3457 22.8973 24.5468 22.6427 24.67 22.3488L27.2086 16.3015L29.7461 22.3488C29.8694 22.6427 30.0705 22.8973 30.3278 23.0852C30.5851 23.2732 30.8889 23.3873 31.2063 23.4153L37.7086 23.9774C37.7086 23.9774 37.7086 23.984 37.7086 23.9851L37.7064 23.9807Z" fill="#F2F6FF"/>
</svg>
