<svg width="54" height="55" viewBox="0 0 54 55" fill="none" xmlns="http://www.w3.org/2000/svg">
<rect x="0.414062" y="0.586426" width="53.5864" height="53.5864" rx="21.9312" fill="#5BA8FD"/>
<path d="M38.5859 28.3266C38.4 30.4878 37.6007 32.551 36.2821 34.2734C34.9635 35.9958 33.1803 37.3058 31.1425 38.0492C29.1046 38.7926 26.8969 38.9385 24.7789 38.4697C22.661 38.001 20.7209 36.9371 19.1871 35.4033C17.6532 33.8694 16.5893 31.9294 16.1206 29.8114C15.6519 27.6935 15.7978 25.4857 16.5412 23.4479C17.2846 21.41 18.5946 19.6269 20.3169 18.3083C22.0393 16.9896 24.1025 16.1903 26.2637 16.0044C26.3786 15.995 26.4943 16.0082 26.6041 16.0434C26.7139 16.0786 26.8156 16.1351 26.9036 16.2097C26.9915 16.2842 27.064 16.3754 27.1167 16.4779C27.1694 16.5804 27.2014 16.6923 27.2109 16.8073C27.2204 16.9222 27.2072 17.0378 27.1719 17.1476C27.1367 17.2574 27.0802 17.3592 27.0057 17.4471C26.9311 17.5351 26.84 17.6075 26.7375 17.6602C26.6349 17.7129 26.523 17.745 26.4081 17.7544C24.5789 17.9116 22.8326 18.5879 21.3748 19.7039C19.9169 20.8198 18.8081 22.329 18.1789 24.0537C17.5496 25.7784 17.426 27.647 17.8227 29.4396C18.2194 31.2322 19.1198 32.8742 20.418 34.1724C21.7162 35.4706 23.3582 36.371 25.1508 36.7677C26.9433 37.1643 28.8119 37.0408 30.5367 36.4115C32.2614 35.7822 33.7705 34.6734 34.8865 33.2156C36.0024 31.7577 36.6788 30.0115 36.8359 28.1822C36.8551 27.9502 36.9656 27.7352 37.1432 27.5847C37.3209 27.4341 37.551 27.3603 37.7831 27.3794C38.0152 27.3986 38.2301 27.5091 38.3807 27.6868C38.5312 27.8644 38.6051 28.0946 38.5859 28.3266ZM26.3359 21.2544V27.3794C26.3359 27.6115 26.4281 27.8341 26.5922 27.9982C26.7563 28.1623 26.9789 28.2544 27.2109 28.2544H33.3359C33.568 28.2544 33.7905 28.1623 33.9546 27.9982C34.1187 27.8341 34.2109 27.6115 34.2109 27.3794C34.2109 27.1474 34.1187 26.9248 33.9546 26.7607C33.7905 26.5966 33.568 26.5044 33.3359 26.5044H28.0859V21.2544C28.0859 21.0224 27.9937 20.7998 27.8296 20.6357C27.6655 20.4716 27.443 20.3794 27.2109 20.3794C26.9789 20.3794 26.7563 20.4716 26.5922 20.6357C26.4281 20.7998 26.3359 21.0224 26.3359 21.2544ZM30.7109 18.6294C30.9705 18.6294 31.2243 18.5525 31.4401 18.4082C31.6559 18.264 31.8242 18.059 31.9235 17.8192C32.0228 17.5794 32.0488 17.3155 31.9982 17.0609C31.9476 16.8063 31.8226 16.5724 31.639 16.3889C31.4554 16.2053 31.2216 16.0803 30.967 16.0297C30.7124 15.979 30.4485 16.005 30.2086 16.1043C29.9688 16.2037 29.7638 16.3719 29.6196 16.5878C29.4754 16.8036 29.3984 17.0573 29.3984 17.3169C29.3984 17.665 29.5367 17.9989 29.7828 18.245C30.029 18.4912 30.3628 18.6294 30.7109 18.6294ZM34.6484 21.2544C34.908 21.2544 35.1618 21.1775 35.3776 21.0332C35.5934 20.889 35.7617 20.684 35.861 20.4442C35.9603 20.2044 35.9863 19.9405 35.9357 19.6859C35.8851 19.4313 35.7601 19.1974 35.5765 19.0139C35.3929 18.8303 35.1591 18.7053 34.9045 18.6547C34.6499 18.604 34.386 18.63 34.1461 18.7293C33.9063 18.8287 33.7013 18.9969 33.5571 19.2128C33.4129 19.4286 33.3359 19.6823 33.3359 19.9419C33.3359 20.29 33.4742 20.6239 33.7203 20.87C33.9665 21.1162 34.3003 21.2544 34.6484 21.2544ZM37.2734 25.1919C37.533 25.1919 37.7868 25.115 38.0026 24.9707C38.2184 24.8265 38.3867 24.6215 38.486 24.3817C38.5853 24.1419 38.6113 23.878 38.5607 23.6234C38.5101 23.3688 38.3851 23.1349 38.2015 22.9514C38.0179 22.7678 37.7841 22.6428 37.5295 22.5922C37.2749 22.5415 37.011 22.5675 36.7711 22.6668C36.5313 22.7662 36.3263 22.9344 36.1821 23.1503C36.0379 23.3661 35.9609 23.6198 35.9609 23.8794C35.9609 24.2275 36.0992 24.5614 36.3453 24.8075C36.5915 25.0537 36.9253 25.1919 37.2734 25.1919Z" fill="#F2F6FF"/>
</svg>
