<svg width="14" height="15" viewBox="0 0 14 15" fill="none" xmlns="http://www.w3.org/2000/svg">
<path d="M12.5599 12.4408L9.8217 9.70318C10.6153 8.75036 11.0111 7.52825 10.9266 6.29108C10.8422 5.05391 10.284 3.89693 9.3682 3.06082C8.45242 2.22471 7.24955 1.77385 6.00982 1.80203C4.77009 1.8302 3.58894 2.33524 2.71209 3.21209C1.83524 4.08894 1.3302 5.27009 1.30203 6.50982C1.27385 7.74955 1.72471 8.95242 2.56082 9.8682C3.39693 10.784 4.55391 11.3422 5.79108 11.4266C7.02825 11.5111 8.25036 11.1153 9.20318 10.3217L11.9408 13.0599C11.9815 13.1005 12.0297 13.1328 12.0829 13.1548C12.136 13.1768 12.1929 13.1881 12.2504 13.1881C12.3079 13.1881 12.3648 13.1768 12.4179 13.1548C12.471 13.1328 12.5193 13.1005 12.5599 13.0599C12.6005 13.0193 12.6328 12.971 12.6548 12.9179C12.6768 12.8648 12.6881 12.8079 12.6881 12.7504C12.6881 12.6929 12.6768 12.636 12.6548 12.5829C12.6328 12.5297 12.6005 12.4815 12.5599 12.4408ZM2.18787 6.62537C2.18787 5.8466 2.4188 5.08533 2.85146 4.43781C3.28412 3.79029 3.89907 3.28561 4.61855 2.98759C5.33804 2.68957 6.12974 2.6116 6.89354 2.76353C7.65734 2.91546 8.35893 3.29047 8.9096 3.84114C9.46027 4.39181 9.83528 5.0934 9.98721 5.8572C10.1391 6.621 10.0612 7.4127 9.76315 8.13218C9.46513 8.85167 8.96045 9.46662 8.31293 9.89928C7.66541 10.3319 6.90413 10.5629 6.12537 10.5629C5.08143 10.5617 4.08059 10.1465 3.34241 9.40832C2.60424 8.67015 2.18903 7.6693 2.18787 6.62537Z" fill="#2E90FA"/>
</svg>
