<svg width="208" height="34" viewBox="0 0 208 34" fill="none" xmlns="http://www.w3.org/2000/svg">
<path d="M47.0401 19.3129H47.8297L49.5142 23.3925L51.1987 19.3129H51.9883L50.0143 24.0242L52.3568 29.4989L56.647 19.2339H57.5419L52.7516 30.4464H52.0146L49.5405 24.6822L47.0664 30.4464H46.3294L41.5391 19.2339H42.4076L46.7242 29.4989L49.0404 24.0242L47.0664 19.3129H47.0401Z" fill="#272323"/>
<path d="M61.3835 30.6042C60.8045 30.6042 60.2781 30.4989 59.778 30.262C59.2779 30.0251 58.8568 29.7356 58.5146 29.3408C58.1461 28.946 57.8829 28.4985 57.6723 27.9984C57.4618 27.4983 57.3828 26.9456 57.3828 26.3929C57.3828 25.8401 57.4881 25.2611 57.6723 24.761C57.8566 24.2609 58.1461 23.8135 58.5146 23.4187C58.8831 23.0238 59.3042 22.708 59.8043 22.4974C60.3044 22.2606 60.8308 22.1553 61.3835 22.1553C61.9363 22.1553 62.489 22.2606 62.9628 22.4974C63.4365 22.7343 63.884 23.0238 64.2525 23.4187C64.621 23.8135 64.9105 24.2609 65.0947 24.761C65.3053 25.2611 65.3843 25.8138 65.3843 26.3929C65.3843 26.9719 65.279 27.4983 65.0947 27.9984C64.8842 28.4985 64.621 28.946 64.2525 29.3408C63.884 29.7356 63.4629 30.0514 62.9628 30.262C62.4627 30.4726 61.9363 30.6042 61.3835 30.6042ZM58.1724 26.3929C58.1724 27.0509 58.3303 27.6299 58.6199 28.1564C58.9094 28.6828 59.3042 29.1039 59.778 29.4197C60.2518 29.7356 60.8045 29.8935 61.3835 29.8935C61.9626 29.8935 62.5153 29.7356 63.0154 29.4197C63.5155 29.1039 63.884 28.6828 64.1735 28.13C64.463 27.5773 64.621 26.9983 64.621 26.3666C64.621 25.7349 64.4894 25.1295 64.1735 24.6031C63.884 24.0767 63.4892 23.6292 63.0154 23.3134C62.5416 22.9975 61.9889 22.8396 61.4099 22.8396C60.8308 22.8396 60.2781 22.9975 59.778 23.3397C59.2779 23.6555 58.9094 24.103 58.6199 24.6294C58.3303 25.1558 58.1724 25.7612 58.1724 26.3929Z" fill="#272323"/>
<path d="M71.1728 22.944C70.4358 22.944 69.7778 23.1809 69.2251 23.602C68.6723 24.0232 68.2775 24.6022 68.067 25.3129V30.4454H67.2773V22.2597H68.0406V24.26C68.3302 23.681 68.6987 23.2072 69.1724 22.8387C69.6462 22.4702 70.1463 22.2597 70.6727 22.207C70.778 22.207 70.8833 22.207 70.9622 22.207H71.1728V22.944Z" fill="#272323"/>
<path d="M78.5969 30.4464L75.3858 26.0508L73.4381 27.8406V30.4464H72.6484V18.918H73.4381V26.9457L78.439 22.2344H79.3339L75.9122 25.5771L79.4391 30.4464H78.5706H78.5969Z" fill="#272323"/>
<path d="M80.9688 18.918H81.7847V28.8671C81.7847 29.2619 81.8637 29.4988 82.0216 29.6568C82.1795 29.7884 82.3901 29.8673 82.6269 29.8673C82.7849 29.8673 82.9691 29.8673 83.1533 29.8147C83.3376 29.7883 83.4955 29.7357 83.6271 29.6831L83.785 30.3411C83.6008 30.3937 83.3902 30.4727 83.127 30.5253C82.8638 30.578 82.6269 30.6043 82.4427 30.6043C81.9953 30.6043 81.6531 30.4727 81.3636 30.2095C81.1004 29.9463 80.9688 29.5778 80.9688 29.1303V18.9443V18.918Z" fill="#272323"/>
<path d="M84.3349 28.0783C84.3349 27.5782 84.4928 27.1571 84.7824 26.7886C85.0719 26.4201 85.493 26.1306 85.9931 25.9463C86.5195 25.7358 87.0986 25.6305 87.7829 25.6305C88.204 25.6305 88.6515 25.6568 89.0989 25.7358C89.5464 25.8147 89.9675 25.92 90.3097 26.0253V25.262C90.3097 24.4987 90.0991 23.9196 89.6517 23.4459C89.2042 22.9984 88.6252 22.7615 87.8355 22.7615C87.4144 22.7615 86.9933 22.8405 86.5458 23.0247C86.0984 23.209 85.6509 23.4459 85.1772 23.7617L84.835 23.1827C85.3614 22.8142 85.8878 22.551 86.3879 22.3667C86.888 22.1825 87.3881 22.1035 87.8882 22.1035C88.862 22.1035 89.6517 22.393 90.2044 22.9721C90.7834 23.5511 91.0466 24.3408 91.0466 25.3409V29.3943C91.0466 29.3943 91.073 29.6049 91.1256 29.6838C91.1783 29.7365 91.2835 29.7891 91.3888 29.7891V30.4471C91.3888 30.4471 91.2046 30.4471 91.1519 30.4471H90.994C90.7834 30.4208 90.6518 30.3419 90.5202 30.1839C90.415 30.0523 90.336 29.8944 90.336 29.7365V29.0785C89.9675 29.5522 89.4674 29.9207 88.8884 30.1839C88.283 30.4471 87.6776 30.5787 87.0196 30.5787C86.4932 30.5787 86.0457 30.4734 85.6246 30.2366C85.2035 30.026 84.8876 29.7101 84.6508 29.3417C84.4139 28.9469 84.3086 28.5257 84.3086 28.052L84.3349 28.0783ZM89.9938 28.7626C90.0991 28.631 90.1781 28.4994 90.2307 28.3678C90.2834 28.2362 90.3097 28.1309 90.3097 28.0256V26.6833C89.9412 26.5254 89.5464 26.4201 89.1252 26.3411C88.7041 26.2622 88.283 26.2358 87.8619 26.2358C87.0459 26.2358 86.3879 26.3938 85.8615 26.7359C85.3614 27.0518 85.0982 27.4992 85.0982 28.052C85.0982 28.3941 85.1772 28.71 85.3614 28.9995C85.5457 29.289 85.7825 29.5259 86.1247 29.7102C86.4406 29.8944 86.809 29.9734 87.2302 29.9734C87.8092 29.9734 88.362 29.8681 88.862 29.6312C89.3621 29.3943 89.7306 29.1048 89.9938 28.7626Z" fill="#272323"/>
<path d="M97.3076 30.6043C96.6759 30.6043 96.0706 30.4464 95.5178 30.1042C94.9651 29.762 94.5177 29.3409 94.2018 28.8145V30.4464H93.4648V18.918H94.2545V24.0505C94.6493 23.4714 95.0967 23.024 95.6494 22.6555C96.1759 22.287 96.7812 22.1291 97.4919 22.1291C98.0709 22.1291 98.5974 22.2607 99.0711 22.4976C99.5449 22.7344 99.9134 23.0766 100.256 23.4714C100.598 23.8662 100.835 24.34 101.019 24.8401C101.203 25.3402 101.282 25.8666 101.282 26.393C101.282 26.9194 101.177 27.4721 100.993 27.9986C100.808 28.525 100.519 28.9461 100.15 29.3409C99.7818 29.7357 99.387 30.0516 98.9132 30.2621C98.4394 30.499 97.913 30.6043 97.3603 30.6043H97.3076ZM97.1497 29.8936C97.6235 29.8936 98.0709 29.7884 98.4658 29.6041C98.8606 29.4199 99.2027 29.1567 99.4922 28.8145C99.7818 28.4723 100.019 28.1038 100.177 27.6827C100.335 27.2616 100.413 26.8405 100.413 26.393C100.413 25.7876 100.282 25.1823 100.019 24.6558C99.7555 24.1294 99.387 23.682 98.9132 23.3398C98.4394 22.9977 97.8867 22.8397 97.2813 22.8397C96.8076 22.8397 96.3864 22.945 95.9916 23.1556C95.5968 23.3661 95.2546 23.6293 94.9651 23.9452C94.6756 24.261 94.4387 24.6295 94.2281 25.0243V27.7354C94.2808 28.0512 94.3861 28.3144 94.5703 28.6039C94.7545 28.8671 94.9914 29.104 95.281 29.2883C95.5705 29.4725 95.8863 29.6304 96.2022 29.762C96.518 29.8673 96.8339 29.9463 97.0971 29.9463L97.1497 29.8936Z" fill="#272323"/>
<path d="M110.471 19.2339H111.155L115.893 30.4464H115.051L113.524 26.7616H108.102L106.576 30.4464H105.707L110.471 19.2339ZM113.235 26.0772L110.813 20.2078L108.365 26.0772H113.235Z" fill="#272323"/>
<path d="M121.263 22.944C120.526 22.944 119.868 23.1809 119.315 23.602C118.762 24.0232 118.367 24.6022 118.157 25.3129V30.4454H117.367V22.2597H118.13V24.26C118.42 23.681 118.789 23.2072 119.262 22.8387C119.736 22.4702 120.236 22.2597 120.763 22.207C120.868 22.207 120.973 22.207 121.052 22.207H121.263V22.944Z" fill="#272323"/>
<path d="M125.794 30.6046C125.241 30.6046 124.715 30.4993 124.241 30.2624C123.767 30.0256 123.346 29.7097 123.004 29.3149C122.662 28.9201 122.399 28.4463 122.188 27.9462C122.004 27.4461 121.898 26.9197 121.898 26.3933C121.898 25.8669 122.004 25.2879 122.188 24.7878C122.372 24.2614 122.635 23.8139 122.978 23.4191C123.32 23.0243 123.715 22.7084 124.188 22.4716C124.662 22.2347 125.162 22.1294 125.741 22.1294C126.452 22.1294 127.084 22.3136 127.61 22.6821C128.136 23.0506 128.584 23.4981 128.952 24.0508V22.261H129.689V30.6309C129.689 31.3679 129.505 31.9996 129.163 32.4997C128.794 32.9998 128.321 33.3683 127.742 33.6315C127.163 33.8684 126.505 34 125.82 34C124.873 34 124.109 33.8157 123.53 33.4736C122.978 33.1314 122.504 32.6576 122.162 32.1049L122.688 31.7364C123.004 32.2891 123.451 32.6839 124.004 32.9471C124.557 33.2103 125.162 33.3419 125.794 33.3419C126.347 33.3419 126.873 33.2367 127.32 33.0261C127.794 32.8155 128.163 32.526 128.452 32.1312C128.742 31.7364 128.873 31.2363 128.873 30.6572V28.8675C128.558 29.3939 128.11 29.8413 127.531 30.1572C126.978 30.473 126.373 30.6309 125.768 30.6309L125.794 30.6046ZM125.978 29.9203C126.32 29.9203 126.662 29.8676 126.978 29.736C127.294 29.6044 127.61 29.4465 127.873 29.2359C128.136 29.0254 128.373 28.7885 128.558 28.5253C128.742 28.2621 128.847 27.9989 128.873 27.7357V25.0247C128.715 24.6035 128.479 24.235 128.163 23.8929C127.847 23.5507 127.478 23.3138 127.084 23.1296C126.689 22.9453 126.268 22.8664 125.847 22.8664C125.346 22.8664 124.899 22.9716 124.53 23.1822C124.136 23.3928 123.82 23.6823 123.53 23.9982C123.241 24.314 123.057 24.7351 122.925 25.1563C122.793 25.5774 122.714 25.9985 122.714 26.4196C122.714 26.8934 122.793 27.3409 122.978 27.762C123.136 28.1831 123.372 28.5516 123.688 28.8938C124.004 29.2359 124.346 29.4728 124.741 29.6571C125.136 29.8413 125.557 29.9203 126.004 29.9203H125.978Z" fill="#272323"/>
<path d="M135.631 30.6046C135.052 30.6046 134.526 30.4993 134.026 30.2624C133.526 30.0256 133.105 29.736 132.736 29.3412C132.368 28.9464 132.078 28.499 131.894 27.9726C131.71 27.4461 131.578 26.8934 131.578 26.3407C131.578 25.5774 131.762 24.8667 132.105 24.235C132.447 23.6033 132.92 23.1033 133.552 22.7084C134.158 22.3136 134.842 22.1294 135.605 22.1294C136.368 22.1294 137.079 22.3136 137.684 22.7084C138.29 23.1033 138.764 23.6033 139.106 24.235C139.448 24.8667 139.632 25.5774 139.632 26.3144V26.4986C139.632 26.4986 139.632 26.6039 139.632 26.6565H132.42C132.473 27.2619 132.631 27.841 132.947 28.341C133.263 28.8411 133.657 29.2359 134.131 29.5255C134.605 29.815 135.131 29.9466 135.71 29.9466C136.29 29.9466 136.816 29.7887 137.316 29.4991C137.816 29.2096 138.185 28.8148 138.369 28.3674L139.053 28.5516C138.895 28.9464 138.632 29.2886 138.29 29.6044C137.948 29.9203 137.553 30.1572 137.079 30.3151C136.605 30.473 136.132 30.5783 135.631 30.5783V30.6046ZM132.368 26.0511H138.869C138.816 25.4195 138.658 24.8404 138.369 24.3403C138.079 23.8402 137.684 23.4717 137.211 23.1822C136.737 22.8927 136.211 22.7611 135.631 22.7611C135.052 22.7611 134.526 22.8927 134.052 23.1822C133.578 23.4717 133.184 23.8402 132.894 24.3403C132.605 24.8404 132.42 25.3931 132.394 26.0511H132.368Z" fill="#272323"/>
<path d="M148.06 30.4471H147.271V25.8937C147.271 24.8409 147.113 24.0776 146.823 23.5775C146.534 23.0774 146.06 22.8405 145.402 22.8405C144.928 22.8405 144.481 22.9458 144.033 23.1827C143.586 23.3932 143.191 23.7091 142.875 24.0776C142.533 24.4724 142.296 24.8935 142.165 25.3673V30.4208H141.375V22.2351H142.112V24.2092C142.323 23.788 142.638 23.4195 143.007 23.1037C143.375 22.7879 143.796 22.551 144.244 22.3667C144.691 22.1825 145.165 22.1035 145.639 22.1035C146.086 22.1035 146.481 22.1825 146.797 22.3404C147.113 22.4983 147.35 22.7352 147.56 23.0511C147.745 23.3669 147.903 23.7354 147.981 24.1828C148.06 24.6303 148.113 25.1567 148.113 25.7358V30.4471H148.06Z" fill="#272323"/>
<path d="M154.032 30.1041C154.032 30.1041 153.874 30.1831 153.716 30.262C153.558 30.341 153.348 30.4199 153.111 30.4989C152.874 30.5779 152.611 30.6042 152.295 30.6042C151.979 30.6042 151.742 30.5515 151.505 30.4463C151.268 30.341 151.058 30.1567 150.9 29.9462C150.742 29.7356 150.689 29.4461 150.689 29.1302V22.8923H149.531V22.2343H150.689V19.418H151.479V22.2343H153.4V22.8923H151.479V28.946C151.479 29.2618 151.611 29.4724 151.821 29.6303C152.032 29.7882 152.242 29.8672 152.505 29.8672C152.821 29.8672 153.111 29.8146 153.348 29.7093C153.585 29.604 153.743 29.525 153.769 29.4987L154.006 30.1304L154.032 30.1041Z" fill="#272323"/>
<path d="M155.43 20.3656V18.918H156.219V20.3656H155.43ZM155.43 30.4464V22.2344H156.219V30.4464H155.43Z" fill="#272323"/>
<path d="M165.404 30.4471H164.615V25.8937C164.615 24.8409 164.457 24.0776 164.167 23.5775C163.878 23.0774 163.404 22.8405 162.746 22.8405C162.272 22.8405 161.825 22.9458 161.377 23.1827C160.93 23.3932 160.535 23.7091 160.219 24.0776C159.877 24.4724 159.64 24.8935 159.508 25.3673V30.4208H158.719V22.2351H159.456V24.2092C159.666 23.788 159.982 23.4195 160.351 23.1037C160.719 22.7879 161.14 22.551 161.588 22.3667C162.035 22.1825 162.509 22.1035 162.983 22.1035C163.43 22.1035 163.825 22.1825 164.141 22.3404C164.457 22.4983 164.694 22.7352 164.904 23.0511C165.088 23.3669 165.246 23.7354 165.325 24.1828C165.404 24.6303 165.457 25.1567 165.457 25.7358V30.4471H165.404Z" fill="#272323"/>
<path d="M167.116 28.0783C167.116 27.5782 167.274 27.1571 167.564 26.7886C167.853 26.4201 168.274 26.1306 168.774 25.9463C169.301 25.7358 169.88 25.6305 170.564 25.6305C170.985 25.6305 171.433 25.6568 171.88 25.7358C172.328 25.8147 172.749 25.92 173.091 26.0253V25.262C173.091 24.4987 172.88 23.9196 172.433 23.4459C171.985 22.9984 171.406 22.7615 170.617 22.7615C170.196 22.7615 169.775 22.8405 169.327 23.0247C168.88 23.209 168.432 23.4459 167.958 23.7617L167.616 23.1827C168.143 22.8142 168.669 22.551 169.169 22.3667C169.669 22.1825 170.169 22.1035 170.669 22.1035C171.643 22.1035 172.433 22.393 172.986 22.9721C173.565 23.5511 173.828 24.3408 173.828 25.3409V29.3943C173.828 29.3943 173.854 29.6049 173.907 29.6838C173.96 29.7365 174.065 29.7891 174.17 29.7891V30.4471C174.17 30.4471 173.986 30.4471 173.933 30.4471H173.775C173.565 30.4208 173.433 30.3419 173.301 30.1839C173.196 30.0523 173.117 29.8944 173.117 29.7365V29.0785C172.749 29.5522 172.249 29.9207 171.67 30.1839C171.064 30.4471 170.459 30.5787 169.801 30.5787C169.274 30.5787 168.827 30.4734 168.406 30.2366C167.985 30.026 167.669 29.7101 167.432 29.3417C167.195 28.9469 167.09 28.5257 167.09 28.052L167.116 28.0783ZM172.775 28.7626C172.88 28.631 172.959 28.4994 173.012 28.3678C173.065 28.2362 173.091 28.1309 173.091 28.0256V26.6833C172.722 26.5254 172.328 26.4201 171.907 26.3411C171.485 26.2622 171.064 26.2358 170.643 26.2358C169.827 26.2358 169.169 26.3938 168.643 26.7359C168.143 27.0518 167.879 27.4992 167.879 28.052C167.879 28.3941 167.958 28.71 168.143 28.9995C168.327 29.289 168.564 29.5259 168.906 29.7102C169.222 29.8944 169.59 29.9734 170.011 29.9734C170.59 29.9734 171.143 29.8681 171.643 29.6312C172.143 29.3943 172.512 29.1048 172.775 28.7626Z" fill="#272323"/>
<path d="M187.09 21.1029C186.906 20.8924 186.722 20.7345 186.485 20.5765C186.248 20.4186 186.038 20.287 185.774 20.208C185.511 20.1291 185.248 20.0238 184.958 19.9712C184.669 19.9185 184.353 19.8922 184.011 19.8922C182.905 19.8922 182.116 20.1028 181.616 20.5239C181.116 20.945 180.852 21.4978 180.852 22.2084C180.852 22.6822 180.958 23.0507 181.195 23.3402C181.431 23.6297 181.774 23.8403 182.274 23.9982C182.747 24.1561 183.379 24.3404 184.142 24.4983C184.958 24.6562 185.643 24.8668 186.248 25.0773C186.827 25.3142 187.301 25.6038 187.617 25.9986C187.933 26.3934 188.091 26.9198 188.091 27.5778C188.091 28.0779 187.985 28.499 187.801 28.8675C187.617 29.236 187.327 29.5518 186.985 29.7887C186.643 30.0256 186.195 30.2099 185.722 30.3415C185.222 30.4731 184.695 30.5257 184.09 30.5257C183.484 30.5257 182.958 30.4731 182.432 30.3415C181.905 30.2099 181.405 30.0256 180.958 29.7887C180.51 29.5518 180.063 29.236 179.668 28.8675L180.089 28.2095C180.326 28.4727 180.589 28.6833 180.879 28.8675C181.168 29.0518 181.484 29.236 181.826 29.3676C182.168 29.4992 182.537 29.6045 182.932 29.6834C183.327 29.7624 183.721 29.7887 184.142 29.7887C185.116 29.7887 185.88 29.6045 186.432 29.236C186.985 28.8675 187.248 28.3411 187.248 27.6304C187.248 27.1304 187.117 26.7355 186.88 26.4197C186.617 26.1039 186.248 25.867 185.722 25.6827C185.195 25.4985 184.537 25.3142 183.748 25.13C182.958 24.9457 182.3 24.7615 181.747 24.5509C181.195 24.3404 180.773 24.0508 180.51 23.7087C180.221 23.3402 180.089 22.8664 180.089 22.261C180.089 21.5767 180.247 21.024 180.589 20.5502C180.931 20.0764 181.379 19.7343 181.984 19.4974C182.59 19.2605 183.274 19.1289 184.064 19.1289C184.537 19.1289 184.985 19.1815 185.406 19.2605C185.827 19.3658 186.195 19.4974 186.564 19.708C186.906 19.8922 187.248 20.1554 187.564 20.4449L187.143 21.0766L187.09 21.1029Z" fill="#272323"/>
<path d="M190.121 30.4464V19.2339H194.78C195.254 19.2339 195.701 19.3392 196.096 19.5234C196.491 19.734 196.833 19.9972 197.122 20.313C197.412 20.6552 197.649 21.0237 197.807 21.4185C197.965 21.8396 198.044 22.2608 198.044 22.6819C198.044 23.2346 197.938 23.761 197.701 24.2348C197.491 24.7086 197.175 25.1297 196.78 25.4455C196.385 25.7614 195.912 25.9719 195.412 26.0509L198.201 30.4201H197.28L194.569 26.1825H190.937V30.4201H190.121V30.4464ZM190.937 25.4719H194.859C195.333 25.4719 195.754 25.3403 196.122 25.0771C196.491 24.8138 196.754 24.4717 196.964 24.0506C197.149 23.6294 197.254 23.182 197.254 22.7082C197.254 22.2344 197.149 21.787 196.912 21.3659C196.675 20.9447 196.385 20.6026 196.017 20.3657C195.648 20.1288 195.227 19.9709 194.754 19.9709H190.937V25.4719Z" fill="#272323"/>
<path d="M200.359 30.4464V19.2339H201.175V29.7095H207.861V30.4464H200.359Z" fill="#272323"/>
<path d="M25.3602 12.2147C25.3602 9.69709 25.3475 7.19212 25.3602 4.67451C25.3855 2.14424 26.4229 0.335097 29.1556 0.259189C31.8756 0.195933 33.1534 1.85326 33.1407 4.44678C33.1281 10.1019 33.1154 15.7571 32.9004 21.3996C32.8371 22.9051 32.2298 24.4739 31.5214 25.8402C28.1814 32.2924 20.2111 35.0757 11.3298 33.0262C4.64992 31.4953 0.373777 26.3589 0.0954476 19.1603C-0.0943225 14.454 0.0574903 9.73504 0.0574903 5.01609C0.0574903 2.34666 1.01899 0.233887 4.01736 0.233887C7.00308 0.233887 8.00253 2.37196 8.02783 5.01609C8.07844 9.41876 7.98988 13.8214 8.06579 18.2114C8.167 23.778 10.1912 25.4354 16.6307 25.448C23.045 25.448 25.221 23.7021 25.3475 18.338C25.3981 16.3011 25.3475 14.2516 25.3475 12.2147H25.3602Z" fill="#272323"/>
<path d="M19.222 16.4159C19.222 17.8202 19.3358 19.2245 19.184 20.6035C19.0196 22.1216 17.7797 22.653 16.4766 22.6024C15.1609 22.5518 14.0096 21.9571 13.9717 20.3884C13.9211 17.5924 13.9464 14.7838 13.9337 11.9879C13.9211 10.28 14.8952 9.31846 16.4513 9.24255C18.0075 9.1793 19.1461 10.0269 19.2346 11.7349C19.3105 13.291 19.2473 14.8471 19.2473 16.4032H19.2093L19.222 16.4159Z" fill="#2B8A5D"/>
</svg>
